<svg xmlns="http://www.w3.org/2000/svg" xmlns:xlink="http://www.w3.org/1999/xlink" zoomAndPan="magnify" preserveAspectRatio="xMidYMid meet" version="1.0" viewBox="0.83 139.25 373.27 76.3"><defs><g/></defs><g fill="#000000" fill-opacity="1"><g transform="translate(2.858275, 200.124786)"><g><path d="M 62.015625 -37.578125 C 61.148438 -34.441406 59.523438 -31.992188 57.140625 -30.234375 C 54.765625 -28.472656 51.765625 -27.378906 48.140625 -26.953125 C 50.734375 -26.734375 52.675781 -25.972656 53.96875 -24.671875 C 55.269531 -23.378906 55.921875 -21.675781 55.921875 -19.5625 C 55.921875 -18.75 55.785156 -17.75 55.515625 -16.5625 L 54.625 -12.578125 C 54.519531 -12.035156 54.46875 -11.65625 54.46875 -11.4375 C 54.46875 -10.738281 54.628906 -10.210938 54.953125 -9.859375 C 55.273438 -9.503906 55.734375 -9.328125 56.328125 -9.328125 C 57.460938 -9.328125 58.285156 -9.164062 58.796875 -8.84375 C 59.316406 -8.519531 59.5 -7.925781 59.34375 -7.0625 C 59.125 -5.8125 58.472656 -4.59375 57.390625 -3.40625 C 56.304688 -2.21875 54.773438 -1.226562 52.796875 -0.4375 C 50.828125 0.34375 48.4375 0.734375 45.625 0.734375 C 42.050781 0.734375 39.207031 -0.0625 37.09375 -1.65625 C 34.988281 -3.257812 33.9375 -5.546875 33.9375 -8.515625 C 33.9375 -9.660156 34.097656 -10.878906 34.421875 -12.171875 L 35.71875 -17.375 C 35.9375 -18.070312 36.046875 -18.800781 36.046875 -19.5625 C 36.046875 -20.800781 35.625 -21.691406 34.78125 -22.234375 C 33.945312 -22.773438 32.609375 -23.046875 30.765625 -23.046875 L 27.671875 -23.046875 L 23.953125 -9.578125 C 23.835938 -9.253906 23.78125 -8.847656 23.78125 -8.359375 C 23.78125 -7.597656 23.96875 -6.945312 24.34375 -6.40625 C 24.726562 -5.863281 25.242188 -5.296875 25.890625 -4.703125 C 26.378906 -4.328125 26.757812 -3.960938 27.03125 -3.609375 C 27.300781 -3.253906 27.4375 -2.890625 27.4375 -2.515625 C 27.4375 -1.597656 27.003906 -0.945312 26.140625 -0.5625 C 25.273438 -0.1875 24.003906 0 22.328125 0 L 1.953125 0 C 0.546875 0 -0.503906 -0.253906 -1.203125 -0.765625 C -1.910156 -1.285156 -2.160156 -2.003906 -1.953125 -2.921875 C -1.835938 -3.410156 -1.628906 -3.800781 -1.328125 -4.09375 C -1.035156 -4.394531 -0.59375 -4.734375 0 -5.109375 C 0.914062 -5.648438 1.644531 -6.21875 2.1875 -6.8125 C 2.726562 -7.414062 3.160156 -8.335938 3.484375 -9.578125 L 13.390625 -44.5625 C 13.609375 -45.269531 13.71875 -45.945312 13.71875 -46.59375 C 13.71875 -47.1875 13.625 -47.6875 13.4375 -48.09375 C 13.25 -48.5 12.988281 -48.972656 12.65625 -49.515625 C 12.175781 -50.210938 11.9375 -50.78125 11.9375 -51.21875 C 11.9375 -51.382812 11.988281 -51.679688 12.09375 -52.109375 C 12.3125 -52.816406 12.785156 -53.316406 13.515625 -53.609375 C 14.242188 -53.910156 15.367188 -54.0625 16.890625 -54.0625 L 44.078125 -54.0625 C 47.804688 -54.0625 51.0625 -53.492188 53.84375 -52.359375 C 56.632812 -51.222656 58.773438 -49.664062 60.265625 -47.6875 C 61.753906 -45.707031 62.5 -43.472656 62.5 -40.984375 C 62.5 -39.847656 62.335938 -38.710938 62.015625 -37.578125 Z M 41.234375 -38.390625 C 41.503906 -39.640625 41.640625 -40.585938 41.640625 -41.234375 C 41.640625 -44.097656 40.070312 -45.53125 36.9375 -45.53125 L 33.53125 -45.53125 L 29.953125 -31.171875 L 33.359375 -31.171875 C 35.472656 -31.171875 37.140625 -31.679688 38.359375 -32.703125 C 39.578125 -33.734375 40.535156 -35.628906 41.234375 -38.390625 Z M 41.234375 -38.390625 "/></g></g></g><g fill="#000000" fill-opacity="1"><g transform="translate(62.432568, 200.124786)"><g><path d="M 27.515625 -43.34375 C 34.390625 -43.34375 39.367188 -42.242188 42.453125 -40.046875 C 45.535156 -37.859375 47.078125 -35.0625 47.078125 -31.65625 C 47.078125 -30.625 46.96875 -29.675781 46.75 -28.8125 C 45.9375 -25.238281 43.675781 -22.679688 39.96875 -21.140625 C 36.269531 -19.597656 31.90625 -18.828125 26.875 -18.828125 C 24.320312 -18.828125 21.9375 -18.988281 19.71875 -19.3125 C 19.664062 -16.5 20.425781 -14.523438 22 -13.390625 C 23.570312 -12.253906 25.765625 -11.6875 28.578125 -11.6875 C 29.867188 -11.6875 31.109375 -11.832031 32.296875 -12.125 C 33.492188 -12.425781 35.015625 -12.875 36.859375 -13.46875 C 38.367188 -14.007812 39.394531 -14.28125 39.9375 -14.28125 C 40.53125 -14.28125 40.828125 -13.929688 40.828125 -13.234375 C 40.878906 -11.335938 40.175781 -9.347656 38.71875 -7.265625 C 37.257812 -5.179688 35.09375 -3.40625 32.21875 -1.9375 C 29.351562 -0.476562 25.890625 0.25 21.828125 0.25 C 15.828125 0.25 10.90625 -1.265625 7.0625 -4.296875 C 3.21875 -7.328125 1.296875 -11.738281 1.296875 -17.53125 C 1.296875 -19.15625 1.515625 -21.050781 1.953125 -23.21875 C 3.304688 -29.875 6.269531 -34.890625 10.84375 -38.265625 C 15.414062 -41.648438 20.972656 -43.34375 27.515625 -43.34375 Z M 20.296875 -24.1875 C 20.515625 -24.132812 20.8125 -24.109375 21.1875 -24.109375 C 23.457031 -24.109375 25.1875 -25.160156 26.375 -27.265625 C 27.570312 -29.378906 28.140625 -31.734375 28.078125 -34.328125 C 28.023438 -35.847656 27.59375 -36.609375 26.78125 -36.609375 C 26.1875 -36.609375 25.484375 -36.132812 24.671875 -35.1875 C 23.859375 -34.238281 23.0625 -32.816406 22.28125 -30.921875 C 21.5 -29.023438 20.835938 -26.78125 20.296875 -24.1875 Z M 20.296875 -24.1875 "/></g></g></g><g fill="#000000" fill-opacity="1"><g transform="translate(105.855232, 200.124786)"><g><path d="M 26.703125 -43.671875 C 31.191406 -43.671875 35.070312 -43.265625 38.34375 -42.453125 C 41.625 -41.640625 44.144531 -40.503906 45.90625 -39.046875 C 47.664062 -37.585938 48.546875 -35.9375 48.546875 -34.09375 C 48.546875 -32.195312 47.800781 -30.648438 46.3125 -29.453125 C 44.820312 -28.265625 42.75 -27.671875 40.09375 -27.671875 C 37.394531 -27.671875 35.109375 -28.347656 33.234375 -29.703125 C 31.367188 -31.054688 30.4375 -32.765625 30.4375 -34.828125 C 30.4375 -35.523438 30.546875 -36.203125 30.765625 -36.859375 C 29.785156 -37.128906 28.921875 -37.265625 28.171875 -37.265625 C 26.816406 -37.265625 25.691406 -36.9375 24.796875 -36.28125 C 23.898438 -35.632812 23.484375 -34.71875 23.546875 -33.53125 C 23.546875 -32.113281 24.25 -30.914062 25.65625 -29.9375 C 27.0625 -28.96875 29.332031 -27.753906 32.46875 -26.296875 C 35.175781 -25.109375 37.40625 -24.015625 39.15625 -23.015625 C 40.914062 -22.015625 42.40625 -20.753906 43.625 -19.234375 C 44.84375 -17.722656 45.453125 -15.9375 45.453125 -13.875 C 45.453125 -13.445312 45.34375 -12.632812 45.125 -11.4375 C 44.257812 -7.8125 41.851562 -4.941406 37.90625 -2.828125 C 33.957031 -0.722656 28.765625 0.328125 22.328125 0.328125 C 15.066406 0.328125 9.3125 -0.644531 5.0625 -2.59375 C 0.820312 -4.539062 -1.296875 -7.222656 -1.296875 -10.640625 C -1.296875 -12.960938 -0.59375 -14.71875 0.8125 -15.90625 C 2.21875 -17.101562 4.082031 -17.703125 6.40625 -17.703125 C 9.113281 -17.703125 11.425781 -16.859375 13.34375 -15.171875 C 15.269531 -13.492188 16.234375 -11.359375 16.234375 -8.765625 C 16.234375 -8.066406 16.148438 -7.335938 15.984375 -6.578125 C 17.285156 -6.253906 18.53125 -6.09375 19.71875 -6.09375 C 21.125 -6.09375 22.285156 -6.46875 23.203125 -7.21875 C 24.128906 -7.976562 24.59375 -9.035156 24.59375 -10.390625 C 24.539062 -11.628906 23.914062 -12.695312 22.71875 -13.59375 C 21.53125 -14.488281 19.640625 -15.554688 17.046875 -16.796875 C 14.609375 -17.929688 12.601562 -19 11.03125 -20 C 9.46875 -21.007812 8.128906 -22.269531 7.015625 -23.78125 C 5.910156 -25.300781 5.359375 -27.085938 5.359375 -29.140625 C 5.359375 -33.578125 7.210938 -37.109375 10.921875 -39.734375 C 14.628906 -42.359375 19.890625 -43.671875 26.703125 -43.671875 Z M 26.703125 -43.671875 "/></g></g></g><g fill="#000000" fill-opacity="1"><g transform="translate(151.956311, 200.124786)"><g><path d="M 36.28125 -41.890625 C 37.3125 -41.890625 38.109375 -41.671875 38.671875 -41.234375 C 39.242188 -40.804688 39.53125 -40.210938 39.53125 -39.453125 C 39.53125 -39.234375 39.476562 -38.851562 39.375 -38.3125 C 38.664062 -35.925781 37.039062 -34.734375 34.5 -34.734375 L 29.796875 -34.734375 L 23.703125 -14.6875 C 23.429688 -13.875 23.296875 -13.035156 23.296875 -12.171875 C 23.296875 -11.203125 23.566406 -10.523438 24.109375 -10.140625 C 24.648438 -9.765625 25.40625 -9.578125 26.375 -9.578125 C 27.238281 -9.578125 28.320312 -9.6875 29.625 -9.90625 C 30.28125 -10.0625 30.847656 -10.140625 31.328125 -10.140625 C 31.710938 -10.140625 32 -10.019531 32.1875 -9.78125 C 32.375 -9.539062 32.46875 -9.226562 32.46875 -8.84375 C 32.519531 -7.757812 31.71875 -6.445312 30.0625 -4.90625 C 28.414062 -3.363281 26.1875 -2.035156 23.375 -0.921875 C 20.5625 0.179688 17.453125 0.734375 14.046875 0.734375 C 10.359375 0.734375 7.40625 -0.101562 5.1875 -1.78125 C 2.96875 -3.457031 1.859375 -5.757812 1.859375 -8.6875 C 1.859375 -10.039062 2.078125 -11.335938 2.515625 -12.578125 L 7.71875 -28.65625 C 7.988281 -29.570312 8.125 -30.300781 8.125 -30.84375 C 8.125 -31.925781 7.863281 -32.84375 7.34375 -33.59375 C 6.832031 -34.351562 6.113281 -35.140625 5.1875 -35.953125 C 4.382812 -36.710938 3.816406 -37.347656 3.484375 -37.859375 C 3.160156 -38.378906 3.082031 -38.988281 3.25 -39.6875 C 3.46875 -40.394531 3.925781 -40.9375 4.625 -41.3125 C 5.332031 -41.695312 6.441406 -41.890625 7.953125 -41.890625 L 12.5 -41.890625 L 17.609375 -47 C 19.398438 -48.78125 21.035156 -50.019531 22.515625 -50.71875 C 24.003906 -51.425781 25.941406 -51.78125 28.328125 -51.78125 C 31.734375 -51.78125 33.4375 -50.484375 33.4375 -47.890625 C 33.4375 -47.078125 33.332031 -46.320312 33.125 -45.625 L 31.984375 -41.890625 Z M 36.28125 -41.890625 "/></g></g></g><g fill="#000000" fill-opacity="1"><g transform="translate(184.827654, 200.124786)"><g><path d="M 43.015625 -42.9375 C 45.398438 -42.9375 47.304688 -41.972656 48.734375 -40.046875 C 50.171875 -38.128906 50.890625 -35.519531 50.890625 -32.21875 C 50.890625 -29.351562 50.378906 -26.269531 49.359375 -22.96875 C 47.347656 -16.3125 44.140625 -10.035156 39.734375 -4.140625 C 35.328125 1.753906 30.265625 6.488281 24.546875 10.0625 C 18.835938 13.632812 13.144531 15.421875 7.46875 15.421875 C 4.65625 15.421875 2.234375 14.929688 0.203125 13.953125 C -1.828125 12.984375 -3.367188 11.6875 -4.421875 10.0625 C -5.472656 8.4375 -6 6.707031 -6 4.875 C -6 4.0625 -5.863281 3.164062 -5.59375 2.1875 C -5.113281 0.675781 -4.304688 -0.484375 -3.171875 -1.296875 C -2.035156 -2.109375 -0.679688 -2.515625 0.890625 -2.515625 C 3.378906 -2.515625 5.421875 -1.664062 7.015625 0.03125 C 8.617188 1.738281 9.632812 4.082031 10.0625 7.0625 C 13.53125 6.894531 16.722656 5.40625 19.640625 2.59375 C 16.878906 2.101562 14.835938 1.171875 13.515625 -0.203125 C 12.191406 -1.578125 11.285156 -3.726562 10.796875 -6.65625 L 7.546875 -26.546875 C 7.390625 -27.566406 7.160156 -28.28125 6.859375 -28.6875 C 6.554688 -29.09375 6.164062 -29.296875 5.6875 -29.296875 C 5.300781 -29.296875 4.851562 -29.109375 4.34375 -28.734375 C 3.832031 -28.359375 3.46875 -28.171875 3.25 -28.171875 C 2.8125 -28.171875 2.59375 -28.628906 2.59375 -29.546875 C 2.59375 -30.304688 2.726562 -31.117188 3 -31.984375 C 3.976562 -35.066406 5.789062 -37.675781 8.4375 -39.8125 C 11.09375 -41.945312 14.179688 -43.015625 17.703125 -43.015625 C 21.160156 -43.015625 23.710938 -41.988281 25.359375 -39.9375 C 27.015625 -37.882812 28.085938 -34.71875 28.578125 -30.4375 L 31 -12.578125 C 31.164062 -11.222656 31.65625 -10.546875 32.46875 -10.546875 C 33.445312 -10.546875 34.582031 -11.425781 35.875 -13.1875 C 37.175781 -14.945312 38.445312 -17.453125 39.6875 -20.703125 C 38.070312 -22.160156 36.828125 -23.835938 35.953125 -25.734375 C 35.085938 -27.628906 34.65625 -29.65625 34.65625 -31.8125 C 34.65625 -33.488281 34.875 -35.003906 35.3125 -36.359375 C 35.957031 -38.523438 36.96875 -40.160156 38.34375 -41.265625 C 39.726562 -42.378906 41.285156 -42.9375 43.015625 -42.9375 Z M 43.015625 -42.9375 "/></g></g></g><g fill="#000000" fill-opacity="1"><g transform="translate(233.120162, 200.124786)"><g><path d="M 25.890625 -59.984375 C 29.035156 -59.984375 31.347656 -59.390625 32.828125 -58.203125 C 34.316406 -57.015625 35.0625 -55.390625 35.0625 -53.328125 C 35.0625 -52.140625 34.875 -50.976562 34.5 -49.84375 L 21.75 -8.4375 C 21.59375 -7.789062 21.515625 -7.222656 21.515625 -6.734375 C 21.515625 -6.035156 21.648438 -5.484375 21.921875 -5.078125 C 22.191406 -4.671875 22.566406 -4.273438 23.046875 -3.890625 C 23.429688 -3.515625 23.703125 -3.203125 23.859375 -2.953125 C 24.023438 -2.710938 24.054688 -2.40625 23.953125 -2.03125 C 23.679688 -1.320312 23.140625 -0.804688 22.328125 -0.484375 C 21.515625 -0.160156 20.269531 0 18.59375 0 L 0.078125 0 C -1.328125 0 -2.351562 -0.226562 -3 -0.6875 C -3.65625 -1.144531 -3.875 -1.753906 -3.65625 -2.515625 C -3.4375 -3.160156 -2.867188 -3.726562 -1.953125 -4.21875 C -1.140625 -4.65625 -0.460938 -5.171875 0.078125 -5.765625 C 0.617188 -6.359375 1.082031 -7.304688 1.46875 -8.609375 L 13.796875 -49.109375 C 13.960938 -49.597656 14.046875 -50.003906 14.046875 -50.328125 C 14.046875 -50.921875 13.894531 -51.40625 13.59375 -51.78125 C 13.300781 -52.164062 12.910156 -52.546875 12.421875 -52.921875 C 11.878906 -53.359375 11.484375 -53.738281 11.234375 -54.0625 C 10.992188 -54.382812 10.957031 -54.816406 11.125 -55.359375 C 11.445312 -56.597656 13.148438 -57.675781 16.234375 -58.59375 C 19.316406 -59.519531 22.535156 -59.984375 25.890625 -59.984375 Z M 25.890625 -59.984375 "/></g></g></g><g fill="#000000" fill-opacity="1"><g transform="translate(260.79701, 200.124786)"><g><path d="M 21.359375 -42.9375 C 24.492188 -42.9375 26.789062 -42.34375 28.25 -41.15625 C 29.71875 -39.96875 30.453125 -38.34375 30.453125 -36.28125 C 30.453125 -35.039062 30.257812 -33.851562 29.875 -32.71875 L 22.40625 -8.4375 C 22.25 -7.789062 22.171875 -7.222656 22.171875 -6.734375 C 22.171875 -6.035156 22.304688 -5.484375 22.578125 -5.078125 C 22.847656 -4.671875 23.222656 -4.273438 23.703125 -3.890625 C 24.085938 -3.515625 24.359375 -3.203125 24.515625 -2.953125 C 24.679688 -2.710938 24.710938 -2.40625 24.609375 -2.03125 C 24.335938 -1.320312 23.796875 -0.804688 22.984375 -0.484375 C 22.171875 -0.160156 20.925781 0 19.25 0 L 0.734375 0 C -0.671875 0 -1.695312 -0.226562 -2.34375 -0.6875 C -3 -1.144531 -3.21875 -1.753906 -3 -2.515625 C -2.78125 -3.160156 -2.210938 -3.726562 -1.296875 -4.21875 C -0.484375 -4.65625 0.191406 -5.171875 0.734375 -5.765625 C 1.273438 -6.359375 1.734375 -7.304688 2.109375 -8.609375 L 9.171875 -32.0625 C 9.335938 -32.550781 9.421875 -32.957031 9.421875 -33.28125 C 9.421875 -33.875 9.285156 -34.347656 9.015625 -34.703125 C 8.742188 -35.054688 8.335938 -35.421875 7.796875 -35.796875 C 7.253906 -36.234375 6.875 -36.613281 6.65625 -36.9375 C 6.445312 -37.257812 6.421875 -37.691406 6.578125 -38.234375 C 6.898438 -39.472656 8.601562 -40.566406 11.6875 -41.515625 C 14.78125 -42.460938 18.003906 -42.9375 21.359375 -42.9375 Z M 26.796875 -60.875 C 28.898438 -60.875 30.65625 -60.179688 32.0625 -58.796875 C 33.476562 -57.421875 34.1875 -55.734375 34.1875 -53.734375 C 34.1875 -52.328125 33.816406 -50.945312 33.078125 -49.59375 C 32.347656 -48.238281 31.320312 -47.140625 30 -46.296875 C 28.675781 -45.460938 27.203125 -45.046875 25.578125 -45.046875 C 23.523438 -45.046875 21.804688 -45.734375 20.421875 -47.109375 C 19.046875 -48.492188 18.328125 -50.21875 18.265625 -52.28125 C 18.265625 -53.625 18.613281 -54.957031 19.3125 -56.28125 C 20.019531 -57.613281 21.023438 -58.710938 22.328125 -59.578125 C 23.628906 -60.441406 25.117188 -60.875 26.796875 -60.875 Z M 26.796875 -60.875 "/></g></g></g><g fill="#000000" fill-opacity="1"><g transform="translate(288.473858, 200.124786)"><g><path d="M 26.703125 -43.671875 C 31.191406 -43.671875 35.070312 -43.265625 38.34375 -42.453125 C 41.625 -41.640625 44.144531 -40.503906 45.90625 -39.046875 C 47.664062 -37.585938 48.546875 -35.9375 48.546875 -34.09375 C 48.546875 -32.195312 47.800781 -30.648438 46.3125 -29.453125 C 44.820312 -28.265625 42.75 -27.671875 40.09375 -27.671875 C 37.394531 -27.671875 35.109375 -28.347656 33.234375 -29.703125 C 31.367188 -31.054688 30.4375 -32.765625 30.4375 -34.828125 C 30.4375 -35.523438 30.546875 -36.203125 30.765625 -36.859375 C 29.785156 -37.128906 28.921875 -37.265625 28.171875 -37.265625 C 26.816406 -37.265625 25.691406 -36.9375 24.796875 -36.28125 C 23.898438 -35.632812 23.484375 -34.71875 23.546875 -33.53125 C 23.546875 -32.113281 24.25 -30.914062 25.65625 -29.9375 C 27.0625 -28.96875 29.332031 -27.753906 32.46875 -26.296875 C 35.175781 -25.109375 37.40625 -24.015625 39.15625 -23.015625 C 40.914062 -22.015625 42.40625 -20.753906 43.625 -19.234375 C 44.84375 -17.722656 45.453125 -15.9375 45.453125 -13.875 C 45.453125 -13.445312 45.34375 -12.632812 45.125 -11.4375 C 44.257812 -7.8125 41.851562 -4.941406 37.90625 -2.828125 C 33.957031 -0.722656 28.765625 0.328125 22.328125 0.328125 C 15.066406 0.328125 9.3125 -0.644531 5.0625 -2.59375 C 0.820312 -4.539062 -1.296875 -7.222656 -1.296875 -10.640625 C -1.296875 -12.960938 -0.59375 -14.71875 0.8125 -15.90625 C 2.21875 -17.101562 4.082031 -17.703125 6.40625 -17.703125 C 9.113281 -17.703125 11.425781 -16.859375 13.34375 -15.171875 C 15.269531 -13.492188 16.234375 -11.359375 16.234375 -8.765625 C 16.234375 -8.066406 16.148438 -7.335938 15.984375 -6.578125 C 17.285156 -6.253906 18.53125 -6.09375 19.71875 -6.09375 C 21.125 -6.09375 22.285156 -6.46875 23.203125 -7.21875 C 24.128906 -7.976562 24.59375 -9.035156 24.59375 -10.390625 C 24.539062 -11.628906 23.914062 -12.695312 22.71875 -13.59375 C 21.53125 -14.488281 19.640625 -15.554688 17.046875 -16.796875 C 14.609375 -17.929688 12.601562 -19 11.03125 -20 C 9.46875 -21.007812 8.128906 -22.269531 7.015625 -23.78125 C 5.910156 -25.300781 5.359375 -27.085938 5.359375 -29.140625 C 5.359375 -33.578125 7.210938 -37.109375 10.921875 -39.734375 C 14.628906 -42.359375 19.890625 -43.671875 26.703125 -43.671875 Z M 26.703125 -43.671875 "/></g></g></g><g fill="#000000" fill-opacity="1"><g transform="translate(334.574936, 200.124786)"><g><path d="M 36.28125 -41.890625 C 37.3125 -41.890625 38.109375 -41.671875 38.671875 -41.234375 C 39.242188 -40.804688 39.53125 -40.210938 39.53125 -39.453125 C 39.53125 -39.234375 39.476562 -38.851562 39.375 -38.3125 C 38.664062 -35.925781 37.039062 -34.734375 34.5 -34.734375 L 29.796875 -34.734375 L 23.703125 -14.6875 C 23.429688 -13.875 23.296875 -13.035156 23.296875 -12.171875 C 23.296875 -11.203125 23.566406 -10.523438 24.109375 -10.140625 C 24.648438 -9.765625 25.40625 -9.578125 26.375 -9.578125 C 27.238281 -9.578125 28.320312 -9.6875 29.625 -9.90625 C 30.28125 -10.0625 30.847656 -10.140625 31.328125 -10.140625 C 31.710938 -10.140625 32 -10.019531 32.1875 -9.78125 C 32.375 -9.539062 32.46875 -9.226562 32.46875 -8.84375 C 32.519531 -7.757812 31.71875 -6.445312 30.0625 -4.90625 C 28.414062 -3.363281 26.1875 -2.035156 23.375 -0.921875 C 20.5625 0.179688 17.453125 0.734375 14.046875 0.734375 C 10.359375 0.734375 7.40625 -0.101562 5.1875 -1.78125 C 2.96875 -3.457031 1.859375 -5.757812 1.859375 -8.6875 C 1.859375 -10.039062 2.078125 -11.335938 2.515625 -12.578125 L 7.71875 -28.65625 C 7.988281 -29.570312 8.125 -30.300781 8.125 -30.84375 C 8.125 -31.925781 7.863281 -32.84375 7.34375 -33.59375 C 6.832031 -34.351562 6.113281 -35.140625 5.1875 -35.953125 C 4.382812 -36.710938 3.816406 -37.347656 3.484375 -37.859375 C 3.160156 -38.378906 3.082031 -38.988281 3.25 -39.6875 C 3.46875 -40.394531 3.925781 -40.9375 4.625 -41.3125 C 5.332031 -41.695312 6.441406 -41.890625 7.953125 -41.890625 L 12.5 -41.890625 L 17.609375 -47 C 19.398438 -48.78125 21.035156 -50.019531 22.515625 -50.71875 C 24.003906 -51.425781 25.941406 -51.78125 28.328125 -51.78125 C 31.734375 -51.78125 33.4375 -50.484375 33.4375 -47.890625 C 33.4375 -47.078125 33.332031 -46.320312 33.125 -45.625 L 31.984375 -41.890625 Z M 36.28125 -41.890625 "/></g></g></g></svg>
